<svg
  stroke-width="0"
  fill="#0770CD"
  height="16"
  width="16"
  stroke="currentColor"
  stroke-linecap="round"
  viewBox="0 0 24 24"
  xmlns="http://www.w3.org/2000/svg"
  xmlns:xlink="http://www.w3.org/1999/xlink"
><path
    d="M17,3.99079514 C17,3.44956807 16.5475107,3 15.9914698,3 L14.9957349,3 C14.4458057,3 14,2.55613518 14,2 C14,1.44771525 14.4419717,1 14.9957349,1 L15.9914698,1 C17.6491909,1 19,2.34208846 19,3.99079514 L19,20.0092049 C19,21.6622568 17.6490859,23 15.9914698,23 L8.0085302,23 C6.35080913,23 5,21.6579115 5,20.0092049 L5,3.99079514 C5,2.33774322 6.35091412,1 8.0085302,1 L9.0042651,1 C9.5541943,1 10,1.44386482 10,2 C10,2.55228475 9.55802831,3 9.0042651,3 L8.0085302,3 C7.45112106,3 7,3.4467228 7,3.99079514 L7,5.00004093 C7.00311919,5.00001366 8.9906311,5 8.9906311,5 C9.54809015,5 10,5.44386482 10,6 C10,6.55228475 9.55664682,7 8.9906311,7 L7.0093689,7 C7.00624259,7 7,15.0000031 7,15.0000031 L16.9975267,15 L17,6.99995907 C16.9968808,6.99998634 15.0093689,7 15.0093689,7 C14.4519098,7 14,6.55613518 14,6 C14,5.44771525 14.4433532,5 15.0093689,5 L16.9906311,5 C16.9937574,5 17,3.99079514 17,3.99079514 Z M17,16.9999969 L16.9975267,17 L7.00247329,17 L7,16.999997 L7,20.0092049 C7,20.5504319 7.45248929,21 8.0085302,21 L15.9914698,21 C16.5488789,21 17,20.5532772 17,20.0092049 L17,16.9999969 L17,16.9999969 Z M10,19 C10,18.4477153 10.4433532,18 11.0093689,18 L12.9906311,18 C13.5480902,18 14,18.4438648 14,19 C14,19.5522847 13.5566468,20 12.9906311,20 L11.0093689,20 C10.4519098,20 10,19.5561352 10,19 Z M13,8.58578644 L13.2928932,8.29289322 C13.6834175,7.90236893 14.3165825,7.90236893 14.7071068,8.29289322 C15.0976311,8.68341751 15.0976311,9.31658249 14.7071068,9.70710678 L12.7071068,11.7071068 C12.3165825,12.0976311 11.6834175,12.0976311 11.2928932,11.7071068 L9.29289322,9.70710678 C8.90236893,9.31658249 8.90236893,8.68341751 9.29289322,8.29289322 C9.68341751,7.90236893 10.3165825,7.90236893 10.7071068,8.29289322 L11,8.58578644 L11,1.00170215 C11,0.449520674 11.4477153,1.77635684e-15 12,1.77635684e-15 C12.5561352,1.77635684e-15 13,0.448477328 13,1.00170215 L13,8.58578644 Z"
  /></svg>
