<svg
  stroke-width="0"
  height="16"
  width="16"
  viewBox="0 0 16 16"
  fill="none"
  stroke="currentColor"
  stroke-linecap="round"
  xmlns="http://www.w3.org/2000/svg"
  xmlns:xlink="http://www.w3.org/1999/xlink"
><g stroke="none" stroke-width="1" fill="none" fill-rule="evenodd"><g
      transform="translate(-127.000000, -48.000000)"
    ><g transform="translate(126.000000, 48.000000)"><rect
          id="Rectangle"
          x="0"
          y="0"
          width="16"
          height="16"
        /><path
          d="M2.5,4 L9.5,4 C9.77614237,4 10,4.22385763 10,4.5 L10,15 L6,12 L2,15 L2,4.5 C2,4.22385763 2.22385763,4 2.5,4 Z M6.5,1 L13.5,1 C13.7761424,1 14,1.22385763 14,1.5 L14,12 L10,9 L10,4.5 C10,4.22385763 9.77614237,4 9.5,4 L6,4 L6,1.5 C6,1.22385763 6.22385763,1 6.5,1 Z"
          id="Shape"
          stroke="#0770CD"
          stroke-width="2"
          stroke-linecap="round"
          stroke-linejoin="round"
        /></g></g></g></svg>
